#format: frame checksums
#version: 2
#hash: MD5
#tb 0: 1/24
#media_type 0: video
#codec_id 0: rawvideo
#dimensions 0: 640x480
#sar 0: 0/1
#stream#, dts,        pts, duration,     size, hash
0,          0,          0,        1,   460800, 3dd21395fc5d3429f9b08492f47af093
0,          1,          1,        1,   460800, 117009cceecc160c385dac3d344505c9
0,          2,          2,        1,   460800, c093aa6e8747287cfeb758f2da7476d1
0,          3,          3,        1,   460800, 6b7c94a3363f3381f7f930ac02b0c975
0,          4,          4,        1,   460800, 87c3824a0ef3566f1a384c3c3e2b0d96
0,          5,          5,        1,   460800, 3de48f3009a159e4737b5993102266de
0,          6,          6,        1,   460800, 2be0ed1afe921093645af2ff917281ab
0,          7,          7,        1,   460800, a89170c8413305fdba8d413a5080e57a
0,          8,          8,        1,   460800, 5a3be131222c223ef8eccd9636330839
0,          9,          9,        1,   460800, 01068b423526481b9732214c16b9e229
0,         10,         10,        1,   460800, f9ea60560154e82d77e2661c34dca143
0,         11,         11,        1,   460800, d77f5b82e34ea5a450076a85141a5618
0,         12,         12,        1,   460800, 91ff4efcfc3a2301fb2329139e0e71a2
0,         13,         13,        1,   460800, af8d914008f5f64f2ec1fadfae8bc697
0,         14,         14,        1,   460800, abb2c4fd1f1ce3c449236da246b62bef
0,         15,         15,        1,   460800, 66b0558f03dd5a472836fea045dd06ea
0,         16,         16,        1,   460800, 224207d3e5b93fc4e8c71b782aabca51
0,         17,         17,        1,   460800, ef975cfa7bc4de88f1333eb301f7ebdd
0,         18,         18,        1,   460800, d75bf790003d2b1ee56bea0cef068e8e
0,         19,         19,        1,   460800, d7a16935d7f808cca046db971e5b612a
0,         20,         20,        1,   460800, f49d06ca4995c267fdc8c674c992cdd1
0,         21,         21,        1,   460800, f53fd634154dec26ec85b6bef01ba890
0,         22,         22,        1,   460800, d2d36371e50ace43ae4d2bab092a24c3
0,         23,         23,        1,   460800, a4c08f4979e7dc914d69a170e198656c
0,         24,         24,        1,   460800, 0d128e33f156fcc228d92117d56a5f93
0,         25,         25,        1,   460800, 52fb8fc75c848ed9bc61d5129473f3fb
0,         26,         26,        1,   460800, 5517f79d2ccb4fc93ede061bfcd632ea
0,         27,         27,        1,   460800, c24fea9e8d02240328de3cb520904a6b
0,         28,         28,        1,   460800, 0cbe46a4b91a0bd235d5e74084058e61
0,         29,         29,        1,   460800, 355b17c2feb6b809c95bb71b333a670d
0,         30,         30,        1,   460800, 063643ba941293ba95e024da202267cb
0,         31,         31,        1,   460800, 8b31727d492fa9b25e025a1f45425b16
0,         32,         32,        1,   460800, 45c5901c24d2ae2304b3e82c075a96bf
0,         33,         33,        1,   460800, b7d4449d0e2157093727cb0f00648751
0,         34,         34,        1,   460800, 167642e702f645853c974531853987f8
0,         35,         35,        1,   460800, 2eb4596d675f099bab6c3b40ce30fd88
0,         36,         36,        1,   460800, 8dd1aec35b92610cb22bedd3c54cb26a
0,         37,         37,        1,   460800, 8eacf32e58d9a731467aba0f61d9e60f
0,         38,         38,        1,   460800, 6a735f86d18ebe265894f633071a25d7
0,         39,         39,        1,   460800, 843b0c938845b72e1c23bc39f7479cba
0,         40,         40,        1,   460800, ca2099b43141cb9131505ab40ac3959f
0,         41,         41,        1,   460800, e65322e1929def11f9985683365ab6bf
0,         42,         42,        1,   460800, 565410a8c2f4b50a192f9590e6ab32c0
0,         43,         43,        1,   460800, fa9a8ac625854cc279a07766ddad6e6f
0,         44,         44,        1,   460800, a46ac62886c48edef3dc58de34a2a004
0,         45,         45,        1,   460800, 414e01b6c24e71efc9c58f65dc0f4aca
0,         46,         46,        1,   460800, e0501b903f21b490da049e51e7a02bae
0,         47,         47,        1,   460800, 48b30eec1e9d862ee54b136045e1d90f
